<?xml version="1.0" encoding="UTF-8"?>
<svg version="1.1" xmlns="http://www.w3.org/2000/svg" width="274" height="285">
<path d="M0 0 C1.232948 -0.00686325 2.465896 -0.0137265 3.73620605 -0.02079773 C7.07338054 -0.03581197 10.40998916 -0.03760174 13.74715447 -0.03185534 C16.55469407 -0.02873114 19.3621849 -0.03489154 22.16971749 -0.04089409 C28.80508206 -0.05486822 35.4403177 -0.05343863 42.07568359 -0.04199219 C48.87178404 -0.03052596 55.66748913 -0.04457756 62.46353751 -0.07138866 C68.3434702 -0.09369849 74.2232802 -0.10014877 80.10325211 -0.09431225 C83.59521511 -0.09097669 87.08692518 -0.09312598 90.5788517 -0.11056328 C113.62404262 -0.21458078 136.27316911 0.52113019 153.77612305 17.46655273 C164.98327128 28.95913772 170.9275953 44.8949016 170.97906494 60.92198181 C170.98477509 61.99397827 170.99048523 63.06597473 170.99636841 64.17045593 C170.9980452 65.91211784 170.9980452 65.91211784 170.99975586 67.68896484 C171.00472076 68.92395721 171.00968567 70.15894958 171.01480103 71.43136597 C171.0268781 74.81002506 171.03436043 78.1886225 171.03881168 81.56729579 C171.0417532 83.68510559 171.04586016 85.80291012 171.05031586 87.92071724 C171.06398157 94.56662848 171.07365073 101.21252748 171.07751775 107.85845178 C171.08198558 115.49233823 171.09947779 123.12604448 171.12851834 130.75987619 C171.15025938 136.6837531 171.16022872 142.6075798 171.16155887 148.53149611 C171.16259878 152.05814124 171.16832934 155.58461681 171.18637848 159.11121941 C171.30608401 183.91788498 170.49834566 205.15530132 152.71362305 224.09155273 C147.43609197 229.37726462 141.70518707 232.57208 134.83862305 235.40405273 C134.1528418 235.71858398 133.46706055 236.03311523 132.76049805 236.35717773 C116.4382209 243.35243937 95.69066038 241.56594377 78.29174805 241.57202148 C76.10902892 241.57524264 73.92631 241.57860733 71.74359131 241.58210754 C67.18476868 241.58806715 62.62596492 241.5899507 58.06713867 241.58935547 C52.27018888 241.58925399 46.47336194 241.60290646 40.67644119 241.62012768 C36.172134 241.63133005 31.66785576 241.63327217 27.16353607 241.63274574 C25.02844571 241.63391347 22.89335429 241.63826601 20.75827789 241.64607811 C-6.43593387 241.73627872 -32.29982284 240.55040894 -52.91137695 221.02905273 C-56.96833824 216.8521465 -59.79047085 212.7099467 -62.16137695 207.40405273 C-62.51844727 206.60741211 -62.87551758 205.81077148 -63.2434082 204.98999023 C-70.38356555 187.28667875 -70.32185582 167.55197676 -70.3293457 148.77514648 C-70.33256918 146.85775224 -70.33593402 144.94035824 -70.33943176 143.02296448 C-70.34539865 139.0078169 -70.34727453 134.99269075 -70.34667969 130.97753906 C-70.3465989 126.91369124 -70.35346725 122.84995726 -70.3671875 118.78613281 C-70.63686075 37.66560842 -70.63686075 37.66560842 -49.16137695 15.40405273 C-35.51012139 3.47281183 -17.66257518 -0.07041307 0 0 Z " fill="#FE5302" transform="translate(87.161376953125,19.595947265625)"/>
<path d="M0 0 C11.19866561 8.40654547 20.11014888 20.07617189 23 34 C23.50183207 38.15803713 23.51362758 40.16297728 21.3125 43.75 C13.45049916 50.45929116 -0.18586157 49.38320797 -9.8125 49.1875 C-14.164375 49.125625 -18.51625 49.06375 -23 49 C-23.33 39.76 -23.66 30.52 -24 21 C-25.32 21 -26.64 21 -28 21 C-28 31.89 -28 42.78 -28 54 C-25.60105469 54.03738281 -23.20210938 54.07476562 -20.73046875 54.11328125 C-18.37043877 54.1596801 -16.010556 54.2108463 -13.65063477 54.26245117 C-12.02833229 54.29541499 -10.40592297 54.32353272 -8.78344727 54.34643555 C13.76069449 54.67316224 13.76069449 54.67316224 19.79101562 59.40551758 C21 61 21 61 20.89453125 64.15625 C19.88152447 68.50908261 18.45311875 72.40515613 16.6875 76.5 C16.33848633 77.31533203 15.98947266 78.13066406 15.62988281 78.97070312 C5.17358399 102.87338794 -8.62483538 124.6492158 -23.57763672 145.94726562 C-24.52531485 147.31494117 -25.44912424 148.69946911 -26.34814453 150.09960938 C-27.62890625 152.046875 -27.62890625 152.046875 -30 155 C-34 155 -34 155 -35.47290039 153.61743164 C-35.92656982 152.97153076 -36.38023926 152.32562988 -36.84765625 151.66015625 C-37.36505371 150.93513916 -37.88245117 150.21012207 -38.41552734 149.46313477 C-39.23077881 148.27482056 -39.23077881 148.27482056 -40.0625 147.0625 C-40.63178223 146.25288818 -41.20106445 145.44327637 -41.78759766 144.60913086 C-46.98656125 137.15921126 -51.94158741 129.55625058 -56.79394531 121.87744141 C-57.92397606 120.11834496 -59.08780143 118.38991416 -60.2734375 116.66796875 C-60.92570312 115.70503906 -61.57796875 114.74210937 -62.25 113.75 C-62.81203125 112.94046875 -63.3740625 112.1309375 -63.953125 111.296875 C-65 109 -65 109 -64.921875 106.328125 C-64 104 -64 104 -62.29272461 102.86889648 C-59.52654031 101.82056831 -57.35091669 101.75711253 -54.39453125 101.76953125 C-53.32912109 101.77146484 -52.26371094 101.77339844 -51.16601562 101.77539062 C-50.05935547 101.78763672 -48.95269531 101.79988281 -47.8125 101.8125 C-46.13510742 101.8134668 -46.13510742 101.8134668 -44.42382812 101.81445312 C-36.14028159 101.85971841 -36.14028159 101.85971841 -35 103 C-34.76346477 105.52596259 -34.57826308 108.03107207 -34.4375 110.5625 C-34.39431641 111.27341797 -34.35113281 111.98433594 -34.30664062 112.71679688 C-34.20028223 114.47761912 -34.09961154 116.2387832 -34 118 C-32.68 118 -31.36 118 -30 118 C-29.67 111.07 -29.34 104.14 -29 97 C-31.81789062 97.00902344 -34.63578125 97.01804687 -37.5390625 97.02734375 C-40.27961404 97.01231139 -43.01980874 96.98536436 -45.76025391 96.95727539 C-47.65929731 96.94416626 -49.55846847 96.9433734 -51.45751953 96.95532227 C-54.19430401 96.9703753 -56.92756621 96.94059396 -59.6640625 96.90234375 C-60.50804596 96.91659897 -61.35202942 96.93085419 -62.22158813 96.94554138 C-65.72469074 96.86022833 -68.07141979 96.7571179 -70.84576416 94.49505615 C-82.6498193 81.00489818 -89.2557025 58.34742389 -88.44921875 40.640625 C-86.44956611 24.43474447 -78.39740726 11.4243451 -66 1 C-45.29205551 -14.09603541 -21.34820364 -12.92391251 0 0 Z " fill="#FEFDFD" transform="translate(169,66)"/>
<path d="M0 0 C0.33 0 0.66 0 1 0 C1.62708811 22.87710345 -0.89045112 42.40179328 -17.125 59.6875 C-22.40253108 64.97321189 -28.13343598 68.16802727 -35 71 C-35.68578125 71.31453125 -36.3715625 71.6290625 -37.078125 71.953125 C-53.40040215 78.94838663 -74.14796266 77.16189104 -91.546875 77.16796875 C-93.72959413 77.17118991 -95.91231304 77.17455459 -98.09503174 77.17805481 C-102.65385437 77.18401442 -107.21265813 77.18589797 -111.77148438 77.18530273 C-117.56843417 77.18520125 -123.36526111 77.19885373 -129.16218185 77.21607494 C-133.66648904 77.22727731 -138.17076729 77.22921944 -142.67508698 77.22869301 C-144.81017734 77.22986074 -146.94526876 77.23421328 -149.08034515 77.24202538 C-161.54436744 77.28336735 -173.66064005 76.82240962 -186 75 C-186 74.67 -186 74.34 -186 74 C-185.223078 74.02963837 -184.44615601 74.05927673 -183.64569092 74.08981323 C-163.06652092 74.85403687 -142.51551728 75.16094005 -121.92285156 75.13037109 C-117.99704349 75.12461417 -114.0713023 75.12810997 -110.14549637 75.13380527 C-62.49942661 77.36991309 -62.49942661 77.36991309 -20.23828125 59.3046875 C-7.53395057 46.22343951 -2.45598239 31.94451028 -1 14 C-0.94505371 13.33532715 -0.89010742 12.6706543 -0.83349609 11.98583984 C-0.5089801 7.99304864 -0.23415035 3.9990415 0 0 Z " fill="#FEF0E9" transform="translate(257,184)"/>
<path d="M0 0 C0 0.66 0 1.32 0 2 C-16.48328217 8.8047217 -32.43590593 8.25566367 -50 8 C-50 7.67 -50 7.34 -50 7 C-48.76507813 6.96261719 -47.53015625 6.92523438 -46.2578125 6.88671875 C-30.86741957 6.32673428 -14.68233722 0 0 0 Z " fill="#FFE1D4" transform="translate(225,252)"/>
<path d="M0 0 C0.66 0 1.32 0 2 0 C-2.08852527 8.95109173 -11.23703062 17.61851531 -20 22 C-20.66 22 -21.32 22 -22 22 C-22 21.34 -22 20.68 -22 20 C-20.20703125 18.6328125 -20.20703125 18.6328125 -17.8125 17.125 C-11.10138419 12.8735137 -6.5498239 8.37185113 -1.76953125 2.046875 C-1.18558594 1.37140625 -0.60164063 0.6959375 0 0 Z " fill="#FFF3ED" transform="translate(247,231)"/>
<path d="M0 0 C0.66 0.33 1.32 0.66 2 1 C-2.62 5.62 -7.24 10.24 -12 15 C-12 10.09687565 -8.29800369 7.38658643 -5 4 C-3.37458956 2.61667196 -1.72614587 1.25537882 0 0 Z " fill="#FE8246" transform="translate(43,31)"/>
</svg>
